<svg xmlns="http://www.w3.org/2000/svg" style="display:none">
<symbol id="icon-steam" viewBox="0 0 640 640">
<path d="M568 320C568 457 456.8 568 319.6 568C205.8 568 110 491.7 80.6 387.6L175.8 426.9C182.2 459 210.7 483.3 244.7 483.3C283.9 483.3 316.6 450.9 314.9 409.8L399.4 349.6C451.5 350.9 495.2 308.7 495.2 256.1C495.2 204.5 453.2 162.6 401.5 162.6C349.8 162.6 307.8 204.6 307.8 256.1L307.8 257.3L248.6 343C233.1 342.1 217.9 346.4 205.1 355.1L72 300.1C82.2 172.4 189.1 72 319.6 72C456.8 72 568 183 568 320zM227.7 448.3L197.2 435.7C202.8 447.3 212.5 456.5 224.4 461.5C251.3 472.7 282.2 459.9 293.4 433.1C298.8 420.1 298.9 405.8 293.5 392.8C288.1 379.8 278 369.6 265 364.2C252.1 358.8 238.3 359 226.1 363.6L257.6 376.6C277.4 384.8 286.8 407.5 278.5 427.3C270.2 447.2 247.5 456.5 227.7 448.3zM401.5 193.8C435.9 193.8 463.8 221.7 463.8 256.1C463.8 290.5 435.9 318.4 401.5 318.4C367.1 318.4 339.2 290.5 339.2 256.1C339.2 221.7 367.1 193.8 401.5 193.8zM401.6 302.8C427.4 302.8 448.4 281.8 448.4 256C448.4 230.2 427.4 209.2 401.6 209.2C375.8 209.2 354.8 230.2 354.8 256C354.8 281.8 375.8 302.8 401.6 302.8z"/>
</symbol>
<symbol id="icon-threads" viewBox="0 0 640 640">
<path d="M427.5 299.7C429.7 300.6 431.7 301.6 433.8 302.5C463 316.6 484.4 337.7 495.6 363.9C511.3 400.4 512.8 459.7 465.3 507.1C429.1 543.3 385 559.6 322.7 560.1L322.4 560.1C252.2 559.6 198.3 536 162 489.9C129.7 448.9 113.1 391.8 112.5 320.3L112.5 319.8C113 248.3 129.6 191.2 161.9 150.2C198.2 104.1 252.2 80.5 322.4 80L322.7 80C393 80.5 447.6 104 485 149.9C503.4 172.6 517 199.9 525.6 231.6L485.2 242.4C478.1 216.6 467.4 194.6 453 177C423.8 141.2 380 122.8 322.5 122.4C265.5 122.9 222.4 141.2 194.3 176.8C168.1 210.1 154.5 258.3 154 320C154.5 381.7 168.1 429.9 194.3 463.3C222.3 498.9 265.5 517.2 322.5 517.7C373.9 517.3 407.9 505.1 436.2 476.8C468.5 444.6 467.9 405 457.6 380.9C451.5 366.7 440.5 354.9 425.7 346C422 372.9 413.9 394.3 401 410.8C383.9 432.6 359.6 444.4 328.3 446.1C304.7 447.4 282 441.7 264.4 430.1C243.6 416.3 231.4 395.3 230.1 370.8C227.6 322.5 265.8 287.8 325.3 284.4C346.4 283.2 366.2 284.1 384.5 287.2C382.1 272.4 377.2 260.6 369.9 252C359.9 240.3 344.3 234.3 323.7 234.2L323 234.2C306.4 234.2 284 238.8 269.7 260.5L235.3 236.9C254.5 207.8 285.6 191.8 323.1 191.8L323.9 191.8C386.5 192.2 423.8 231.3 427.6 299.5L427.4 299.7L427.5 299.7zM271.5 368.5C272.8 393.6 299.9 405.3 326.1 403.8C351.7 402.4 380.7 392.4 385.6 330.6C372.4 327.7 357.8 326.2 342.2 326.2C337.4 326.2 332.6 326.3 327.8 326.6C284.9 329 270.6 349.8 271.6 368.4L271.5 368.5z"/>
</symbol>
<symbol id="icon-codepen" viewBox="0 0 640 640">
<path d="M566.3 223.7L332.3 67.7C324.3 62.8 315.8 62.7 307.7 67.7L73.7 223.7C67.7 227.7 64 234.8 64 242L64 398C64 405.1 67.7 412.3 73.7 416.3L307.7 572.3C315.7 577.2 324.2 577.3 332.3 572.3L566.3 416.3C572.3 412.3 576 405.2 576 398L576 242C576 234.9 572.3 227.7 566.3 223.7zM342 127.1L514.3 242L437.4 293.4L342 229.7L342 127.1zM298 127.1L298 229.7L202.6 293.4L125.7 242L298 127.1zM108 283.1L163.1 320L108 356.8L108 283.1zM298 512.8L125.7 398L202.6 346.6L298 410.3L298 512.8zM320 372L242.3 320L320 268L397.7 320L320 372zM342 512.9L342 410.3L437.4 346.6L514.3 398L342 512.9zM532 356.9L476.9 320L532 283.1L532 356.8z"/>
</symbol>
<symbol id="icon-deviantart" viewBox="0 0 640 640">
<path d="M480 157.2L381.8 336.3L389.2 345.8L480 345.8L480 473.5L319.1 473.5L305.6 482.7L261.9 566.7C261.6 566.7 253.3 575.3 252.7 575.9L160 575.9L160 482.7L253.2 303.3L245.8 294.1L160 294.1L160 166.5L316 166.5L329.5 157.3L373.2 73.3C373.5 73.3 381.8 64.7 382.4 64.1L480 64.1L480 157.2z"/>
</symbol>
<symbol id="icon-discord" viewBox="0 0 640 640">
<path d="M524.5 133.8C524.3 133.5 524.1 133.2 523.7 133.1C485.6 115.6 445.3 103.1 404 96C403.6 95.9 403.2 96 402.9 96.1C402.6 96.2 402.3 96.5 402.1 96.9C396.6 106.8 391.6 117.1 387.2 127.5C342.6 120.7 297.3 120.7 252.8 127.5C248.3 117 243.3 106.8 237.7 96.9C237.5 96.6 237.2 96.3 236.9 96.1C236.6 95.9 236.2 95.9 235.8 95.9C194.5 103 154.2 115.5 116.1 133C115.8 133.1 115.5 133.4 115.3 133.7C39.1 247.5 18.2 358.6 28.4 468.2C28.4 468.5 28.5 468.7 28.6 469C28.7 469.3 28.9 469.4 29.1 469.6C73.5 502.5 123.1 527.6 175.9 543.8C176.3 543.9 176.7 543.9 177 543.8C177.3 543.7 177.7 543.4 177.9 543.1C189.2 527.7 199.3 511.3 207.9 494.3C208 494.1 208.1 493.8 208.1 493.5C208.1 493.2 208.1 493 208 492.7C207.9 492.4 207.8 492.2 207.6 492.1C207.4 492 207.2 491.8 206.9 491.7C191.1 485.6 175.7 478.3 161 469.8C160.7 469.6 160.5 469.4 160.3 469.2C160.1 469 160 468.6 160 468.3C160 468 160 467.7 160.2 467.4C160.4 467.1 160.5 466.9 160.8 466.7C163.9 464.4 167 462 169.9 459.6C170.2 459.4 170.5 459.2 170.8 459.2C171.1 459.2 171.5 459.2 171.8 459.3C268 503.2 372.2 503.2 467.3 459.3C467.6 459.2 468 459.1 468.3 459.1C468.6 459.1 469 459.3 469.2 459.5C472.1 461.9 475.2 464.4 478.3 466.7C478.5 466.9 478.7 467.1 478.9 467.4C479.1 467.7 479.1 468 479.1 468.3C479.1 468.6 479 468.9 478.8 469.2C478.6 469.5 478.4 469.7 478.2 469.8C463.5 478.4 448.2 485.7 432.3 491.6C432.1 491.7 431.8 491.8 431.6 492C431.4 492.2 431.3 492.4 431.2 492.7C431.1 493 431.1 493.2 431.1 493.5C431.1 493.8 431.2 494 431.3 494.3C440.1 511.3 450.1 527.6 461.3 543.1C461.5 543.4 461.9 543.7 462.2 543.8C462.5 543.9 463 543.9 463.3 543.8C516.2 527.6 565.9 502.5 610.4 469.6C610.6 469.4 610.8 469.2 610.9 469C611 468.8 611.1 468.5 611.1 468.2C623.4 341.4 590.6 231.3 524.2 133.7zM222.5 401.5C193.5 401.5 169.7 374.9 169.7 342.3C169.7 309.7 193.1 283.1 222.5 283.1C252.2 283.1 275.8 309.9 275.3 342.3C275.3 375 251.9 401.5 222.5 401.5zM417.9 401.5C388.9 401.5 365.1 374.9 365.1 342.3C365.1 309.7 388.5 283.1 417.9 283.1C447.6 283.1 471.2 309.9 470.7 342.3C470.7 375 447.5 401.5 417.9 401.5z"/>
</symbol>
<symbol id="icon-github" viewBox="0 0 640 640">
<path d="M237.9 461.4C237.9 463.4 235.6 465 232.7 465C229.4 465.3 227.1 463.7 227.1 461.4C227.1 459.4 229.4 457.8 232.3 457.8C235.3 457.5 237.9 459.1 237.9 461.4zM206.8 456.9C206.1 458.9 208.1 461.2 211.1 461.8C213.7 462.8 216.7 461.8 217.3 459.8C217.9 457.8 216 455.5 213 454.6C210.4 453.9 207.5 454.9 206.8 456.9zM251 455.2C248.1 455.9 246.1 457.8 246.4 460.1C246.7 462.1 249.3 463.4 252.3 462.7C255.2 462 257.2 460.1 256.9 458.1C256.6 456.2 253.9 454.9 251 455.2zM316.8 72C178.1 72 72 177.3 72 316C72 426.9 141.8 521.8 241.5 555.2C254.3 557.5 258.8 549.6 258.8 543.1C258.8 536.9 258.5 502.7 258.5 481.7C258.5 481.7 188.5 496.7 173.8 451.9C173.8 451.9 162.4 422.8 146 415.3C146 415.3 123.1 399.6 147.6 399.9C147.6 399.9 172.5 401.9 186.2 425.7C208.1 464.3 244.8 453.2 259.1 446.6C261.4 430.6 267.9 419.5 275.1 412.9C219.2 406.7 162.8 398.6 162.8 302.4C162.8 274.9 170.4 261.1 186.4 243.5C183.8 237 175.3 210.2 189 175.6C209.9 169.1 258 202.6 258 202.6C278 197 299.5 194.1 320.8 194.1C342.1 194.1 363.6 197 383.6 202.6C383.6 202.6 431.7 169 452.6 175.6C466.3 210.3 457.8 237 455.2 243.5C471.2 261.2 481 275 481 302.4C481 398.9 422.1 406.6 366.2 412.9C375.4 420.8 383.2 435.8 383.2 459.3C383.2 493 382.9 534.7 382.9 542.9C382.9 549.4 387.5 557.3 400.2 555C500.2 521.8 568 426.9 568 316C568 177.3 455.5 72 316.8 72zM169.2 416.9C167.9 417.9 168.2 420.2 169.9 422.1C171.5 423.7 173.8 424.4 175.1 423.1C176.4 422.1 176.1 419.8 174.4 417.9C172.8 416.3 170.5 415.6 169.2 416.9zM158.4 408.8C157.7 410.1 158.7 411.7 160.7 412.7C162.3 413.7 164.3 413.4 165 412C165.7 410.7 164.7 409.1 162.7 408.1C160.7 407.5 159.1 407.8 158.4 408.8zM190.8 444.4C189.2 445.7 189.8 448.7 192.1 450.6C194.4 452.9 197.3 453.2 198.6 451.6C199.9 450.3 199.3 447.3 197.3 445.4C195.1 443.1 192.1 442.8 190.8 444.4zM179.4 429.7C177.8 430.7 177.8 433.3 179.4 435.6C181 437.9 183.7 438.9 185 437.9C186.6 436.6 186.6 434 185 431.7C183.6 429.4 181 428.4 179.4 429.7z"/>
</symbol>
<symbol id="icon-instagram" viewBox="0 0 640 640">
<path d="M320.3 205C256.8 204.8 205.2 256.2 205 319.7C204.8 383.2 256.2 434.8 319.7 435C383.2 435.2 434.8 383.8 435 320.3C435.2 256.8 383.8 205.2 320.3 205zM319.7 245.4C360.9 245.2 394.4 278.5 394.6 319.7C394.8 360.9 361.5 394.4 320.3 394.6C279.1 394.8 245.6 361.5 245.4 320.3C245.2 279.1 278.5 245.6 319.7 245.4zM413.1 200.3C413.1 185.5 425.1 173.5 439.9 173.5C454.7 173.5 466.7 185.5 466.7 200.3C466.7 215.1 454.7 227.1 439.9 227.1C425.1 227.1 413.1 215.1 413.1 200.3zM542.8 227.5C541.1 191.6 532.9 159.8 506.6 133.6C480.4 107.4 448.6 99.2 412.7 97.4C375.7 95.3 264.8 95.3 227.8 97.4C192 99.1 160.2 107.3 133.9 133.5C107.6 159.7 99.5 191.5 97.7 227.4C95.6 264.4 95.6 375.3 97.7 412.3C99.4 448.2 107.6 480 133.9 506.2C160.2 532.4 191.9 540.6 227.8 542.4C264.8 544.5 375.7 544.5 412.7 542.4C448.6 540.7 480.4 532.5 506.6 506.2C532.8 480 541 448.2 542.8 412.3C544.9 375.3 544.9 264.5 542.8 227.5zM495 452C487.2 471.6 472.1 486.7 452.4 494.6C422.9 506.3 352.9 503.6 320.3 503.6C287.7 503.6 217.6 506.2 188.2 494.6C168.6 486.8 153.5 471.7 145.6 452C133.9 422.5 136.6 352.5 136.6 319.9C136.6 287.3 134 217.2 145.6 187.8C153.4 168.2 168.5 153.1 188.2 145.2C217.7 133.5 287.7 136.2 320.3 136.2C352.9 136.2 423 133.6 452.4 145.2C472 153 487.1 168.1 495 187.8C506.7 217.3 504 287.3 504 319.9C504 352.5 506.7 422.6 495 452z"/>
</symbol>
<symbol id="icon-linkedin" viewBox="0 0 640 640">
<path d="M512 96L127.9 96C110.3 96 96 110.5 96 128.3L96 511.7C96 529.5 110.3 544 127.9 544L512 544C529.6 544 544 529.5 544 511.7L544 128.3C544 110.5 529.6 96 512 96zM231.4 480L165 480L165 266.2L231.5 266.2L231.5 480L231.4 480zM198.2 160C219.5 160 236.7 177.2 236.7 198.5C236.7 219.8 219.5 237 198.2 237C176.9 237 159.7 219.8 159.7 198.5C159.7 177.2 176.9 160 198.2 160zM480.3 480L413.9 480L413.9 376C413.9 351.2 413.4 319.3 379.4 319.3C344.8 319.3 339.5 346.3 339.5 374.2L339.5 480L273.1 480L273.1 266.2L336.8 266.2L336.8 295.4L337.7 295.4C346.6 278.6 368.3 260.9 400.6 260.9C467.8 260.9 480.3 305.2 480.3 362.8L480.3 480z"/>
</symbol>
<symbol id="icon-pinterest" viewBox="0 0 640 640">
<path d="M568 320C568 457 457 568 320 568C294.4 568 269.8 564.1 246.6 556.9C256.7 540.4 271.8 513.4 277.4 491.9C280.4 480.3 292.8 432.9 292.8 432.9C300.9 448.3 324.5 461.4 349.6 461.4C424.4 461.4 478.3 392.6 478.3 307.1C478.3 225.2 411.4 163.9 325.4 163.9C218.4 163.9 161.5 235.7 161.5 314C161.5 350.4 180.9 395.7 211.8 410.1C216.5 412.3 219 411.3 220.1 406.8C220.9 403.4 225.1 386.5 227 378.7C227.6 376.2 227.3 374 225.3 371.6C215.2 359.1 207 336.3 207 315C207 260.3 248.4 207.4 319 207.4C379.9 207.4 422.6 248.9 422.6 308.3C422.6 375.4 388.7 421.9 344.6 421.9C320.3 421.9 302 401.8 307.9 377.1C314.9 347.6 328.4 315.8 328.4 294.5C328.4 275.5 318.2 259.6 297 259.6C272.1 259.6 252.1 285.3 252.1 319.8C252.1 341.8 259.5 356.6 259.5 356.6C259.5 356.6 235 460.4 230.5 479.8C225.5 501.2 227.5 531.4 229.6 551C137.4 514.9 72 425.1 72 320C72 183 183 72 320 72C457 72 568 183 568 320z"/>
</symbol>
<symbol id="icon-spotify" viewBox="0 0 640 640">
<path d="M320 72C183 72 72 183 72 320C72 457 183 568 320 568C457 568 568 457 568 320C568 183 457 72 320 72zM420.7 436.9C416.5 436.9 413.9 435.6 410 433.3C347.6 395.7 275 394.1 203.3 408.8C199.4 409.8 194.3 411.4 191.4 411.4C181.7 411.4 175.6 403.7 175.6 395.6C175.6 385.3 181.7 380.4 189.2 378.8C271.1 360.7 354.8 362.3 426.2 405C432.3 408.9 435.9 412.4 435.9 421.5C435.9 430.6 428.8 436.9 420.7 436.9zM447.6 371.3C442.4 371.3 438.9 369 435.3 367.1C372.8 330.1 279.6 315.2 196.7 337.7C191.9 339 189.3 340.3 184.8 340.3C174.1 340.3 165.4 331.6 165.4 320.9C165.4 310.2 170.6 303.1 180.9 300.2C208.7 292.4 237.1 286.6 278.7 286.6C343.6 286.6 406.3 302.7 455.7 332.1C463.8 336.9 467 343.1 467 351.8C466.9 362.6 458.5 371.3 447.6 371.3zM478.6 295.1C473.4 295.1 470.2 293.8 465.7 291.2C394.5 248.7 267.2 238.5 184.8 261.5C181.2 262.5 176.7 264.1 171.9 264.1C158.7 264.1 148.6 253.8 148.6 240.5C148.6 226.9 157 219.2 166 216.6C201.2 206.3 240.6 201.4 283.5 201.4C356.5 201.4 433 216.6 488.9 249.2C496.7 253.7 501.8 259.9 501.8 271.8C501.8 285.4 490.8 295.1 478.6 295.1z"/>
</symbol>
</svg>