<svg xmlns="http://www.w3.org/2000/svg" viewBox="0 0 1035.31 44.74"><path d="M741.31,21.45c1.72-1.76,2.59-4.61,1.16-6.81-1.24-1.9-4-2.85-5.88-1.38a3.82,3.82,0,0,0-.23,5.81,4,4,0,0,0,3.27.85,3.43,3.43,0,0,0,.44-0.11c-1.51,1.75-4,2.28-6.21,2.61a55.39,55.39,0,0,1-8.12.63c-11,.07-21.68-2.79-32.1-5.92s-20.52-6.51-31.19-7.93a93.57,93.57,0,0,0-31.05,1.1,162.83,162.83,0,0,0-17.21,5,48.85,48.85,0,0,1-11.85,2.58,6.47,6.47,0,0,0,1.44-3.6,8.09,8.09,0,0,0-6-8.09c-4.42-1.35-8.88.49-12.85,2.32L571.06,15,555.79,22a67.19,67.19,0,0,1-12.41,4.33c2.72-2.07,5.91-6.12,3-9.37a3.74,3.74,0,0,0-4.44-.88A3.25,3.25,0,0,0,544.65,22l0.28-.12a7.41,7.41,0,0,1-1.33,1.67,16.12,16.12,0,0,1-5.78,3.58,15.18,15.18,0,0,1-3.6.81,69.17,69.17,0,0,1-7,.39,69.17,69.17,0,0,1-7-.39,15.18,15.18,0,0,1-3.6-.81,16.12,16.12,0,0,1-5.78-3.58,7.41,7.41,0,0,1-1.33-1.67L509.7,22a3.25,3.25,0,0,0,2.72-5.87A3.74,3.74,0,0,0,508,17c-2.93,3.25.26,7.29,3,9.37A67.19,67.19,0,0,1,498.55,22L483.29,15,469.38,8.56c-4-1.83-8.44-3.67-12.85-2.32a8.09,8.09,0,0,0-6,8.09,6.47,6.47,0,0,0,1.44,3.6,48.85,48.85,0,0,1-11.85-2.58,162.83,162.83,0,0,0-17.21-5,93.57,93.57,0,0,0-31.05-1.1C381.23,10.63,371,14,360.71,17.14s-21.14,6-32.1,5.92a55.39,55.39,0,0,1-8.12-.63c-2.18-.34-4.7-0.87-6.21-2.61a3.43,3.43,0,0,0,.44.11,4,4,0,0,0,3.27-.85,3.82,3.82,0,0,0-.23-5.81c-1.92-1.48-4.64-.53-5.88,1.38-1.43,2.2-.56,5,1.16,6.81,1.88,1.92,4.58,2.56,7.13,3,1,0.16,2.05.29,3.09,0.39-121.39,2-313.73,4.66-313.73,4.66s261.83,2.68,371,5.34c-0.88,0-1.76.12-2.65,0.23-2.86.34-6.62,0.86-8.18,3.65-1.19,2.13-.62,5.18,2,5.86a3.5,3.5,0,0,0,4.29-4.23,3.23,3.23,0,0,0-2.28-2.39,20.71,20.71,0,0,1,5.8-1c13-1.12,25.4,4.19,37.26,8.76,3,1.16,6,2.3,9.13,3.3,2.72,0.89,5.56,1.78,8.46,1.48,3.26-.34,7.5-2.81,7.49-6.52,0-2.86-2.25-5.6-5.24-5.47s-5.74,3.06-5.08,6.13a4.86,4.86,0,0,0,.92,1.95h0a14.06,14.06,0,0,1-5.88-5.63,16.13,16.13,0,0,1-2.09-9.76c1.9,0.12,3.8.3,5.61,0.57,3.74,0.56,6.17,6.74,9.73,3.74,1.5-1.31,2.44-2.8,4.3-3.55,4.49-1.69,9.92-.94,14.41-0.56V39.2c3.93-1.5,24.52-9.73,28.07-7.68v8.43c6.68-2.48,12.55-4.44,17.89-5.93a9.87,9.87,0,0,0-4.66,3.56c-1.51,2.43-1,6.3,2.21,7a3.88,3.88,0,0,0,4.36-5.43A3.6,3.6,0,0,0,503.22,37c0.27-.17.56-0.32,0.83-0.48a46.64,46.64,0,0,1,20.85-6q1.14,0,2.27,0t2.27,0a46.64,46.64,0,0,1,20.85,6c0.28,0.16.56,0.3,0.83,0.48A3.6,3.6,0,0,0,548,39.13a3.88,3.88,0,0,0,4.36,5.43c3.17-.68,3.72-4.54,2.21-7A9.87,9.87,0,0,0,549.94,34c5.34,1.48,11.21,3.45,17.89,5.93V31.52c3.55-2,24.14,6.18,28.07,7.68V31.34c4.49-.38,9.92-1.13,14.41.56,1.87,0.75,2.81,2.24,4.3,3.55,3.55,3,6-3.18,9.73-3.74,1.81-.27,3.71-0.45,5.61-0.57a16.13,16.13,0,0,1-2.09,9.76A14.06,14.06,0,0,1,622,46.53h0a4.86,4.86,0,0,0,.92-1.95c0.66-3.07-2.07-6-5.08-6.13s-5.23,2.61-5.24,5.47c0,3.72,4.23,6.19,7.49,6.52,2.89,0.3,5.74-.6,8.46-1.48,3.08-1,6.11-2.14,9.13-3.3,11.87-4.57,24.25-9.88,37.26-8.76a20.71,20.71,0,0,1,5.8,1,3.23,3.23,0,0,0-2.28,2.39,3.5,3.5,0,0,0,4.29,4.23c2.59-.68,3.15-3.73,2-5.86-1.56-2.79-5.32-3.3-8.18-3.65-0.89-.11-1.77-0.18-2.65-0.23,109.12-2.66,371-5.34,371-5.34s-192.34-2.66-313.73-4.66c1-.1,2.06-0.23,3.09-0.39C736.74,24,739.44,23.37,741.31,21.45ZM387.89,35c13.21,0.35,23.68.69,30.51,1V31c1.3,0,2.64,0,4,.08a16.81,16.81,0,0,0,0,3.9c0.59,5.09,3.9,11,8.8,13.38a27.44,27.44,0,0,1-3.82-1c-2-.63-4-1.33-6-2.05C410.52,41.28,399.47,36.19,387.89,35Zm48.57-18.71a17.66,17.66,0,0,0-5.22,1.86,17.11,17.11,0,0,0-8.12,9.62c-1.58.07-3.15,0.12-4.72,0.21V22.91c-7.46.34-38.83,1-81.12,1.67a101.28,101.28,0,0,0,10.85-1.91c12.46-2.85,24.42-7.57,36.94-10.2a91.84,91.84,0,0,1,37.51-.17A128.85,128.85,0,0,1,436.45,16.28Zm22,4.05v7.26c-4.3.19-10.48,0.94-14.6-.93-2.62-1.12-5-6.18-8-3.37-2.62,2.43-4.11,3.56-7.86,4.12-0.9.1-1.8,0.18-2.7,0.24a13.19,13.19,0,0,1,.93-1.93A15.82,15.82,0,0,1,439.56,18C446.07,18,451.87,22.7,458.44,20.33Zm28.07,6.89C483.11,29.38,464.06,21.9,459,20l0,0a5.63,5.63,0,0,0,3.3-5.67,4.6,4.6,0,0,0-6.26-3.94,4.8,4.8,0,0,0-3,3.14,4.26,4.26,0,0,1,.5-2.7c1.9-2.94,5.81-3.33,9-2.62,3.54,0.8,6.85,2.64,10.13,4.16,5.58,2.58,13.89,6.71,13.89,6.71v8.23ZM632,34.94a16.81,16.81,0,0,0,0-3.9c1.35-.05,2.7-0.08,4-0.08V36c6.83-.34,17.3-0.68,30.51-1-11.59,1.19-22.64,6.28-33.52,10.28-2,.73-4,1.42-6,2.05a27.44,27.44,0,0,1-3.82,1C628.05,45.95,631.37,40,632,34.94ZM601.31,13.44a4.8,4.8,0,0,0-3-3.14A4.6,4.6,0,0,0,592,14.24a5.63,5.63,0,0,0,3.3,5.67l0,0c-5,1.95-24.09,9.42-27.49,7.27V19s8.3-4.13,13.89-6.71c3.27-1.51,6.58-3.36,10.13-4.16,3.14-.71,7-0.32,9,2.62A4.26,4.26,0,0,1,601.31,13.44ZM614.78,18a15.82,15.82,0,0,1,13.39,7.71,13.19,13.19,0,0,1,.93,1.93c-0.9-.06-1.8-0.13-2.7-0.24-3.75-.56-5.24-1.69-7.86-4.12-3-2.81-5.43,2.25-8,3.37-4.12,1.87-10.29,1.12-14.6.93V20.33C602.48,22.7,608.28,18,614.78,18Zm102.29,6.57c-42.29-.71-73.66-1.32-81.12-1.67V28c-1.57-.09-3.15-0.14-4.72-0.21a17.11,17.11,0,0,0-8.12-9.62,17.66,17.66,0,0,0-5.22-1.86,128.85,128.85,0,0,1,13.89-4,91.84,91.84,0,0,1,37.51.17c12.52,2.64,24.48,7.35,36.94,10.2A101.28,101.28,0,0,0,717.07,24.58Z" transform="translate(-9.52 -5.77)" fill="#ffffff"/></svg>